<?xml version="1.0" standalone="no"?>
<!DOCTYPE svg PUBLIC "-//W3C//DTD SVG 1.1//EN" "http://www.w3.org/Graphics/SVG/1.1/DTD/svg11.dtd" >
<svg>
<metadata>
Created by FontForge 20110222 at Thu Apr 25 14:39:54 2013
 By Orthosie Webmaster
Unicode Fonts for Ancient Scripts; George Douros; 2013
</metadata>
<defs>
<font id="SymbolaRegular" horiz-adv-x="1024" >
  <font-face 
    font-family="SymbolaRegular"
    font-weight="400"
    font-stretch="semi-condensed"
    units-per-em="2048"
    panose-1="2 2 5 3 6 8 5 2 2 4"
    ascent="1606"
    descent="-442"
    bbox="-1272 -442 6049 1606"
    underline-thickness="20"
    underline-position="-432"
    unicode-range="U+0020-FFFB9"
  />
<missing-glyph horiz-adv-x="512" 
 />
    <glyph glyph-name=".notdef" horiz-adv-x="512" 
 />
    <glyph glyph-name=".null" horiz-adv-x="0" 
 />
    <glyph glyph-name="nonmarkingreturn" horiz-adv-x="682" 
 />
    <glyph glyph-name="space" unicode=" " horiz-adv-x="512" 
 />
    <glyph glyph-name="exclam" unicode="!" horiz-adv-x="682" 
d="M449 1362l-79 -934q-4 -45 -29 -45t-29 47l-79 932q-4 47 32 77q32 27 76 27t76 -27q36 -30 32 -77zM450 109q0 -45 -32 -77t-77 -32t-77 32t-32 77q0 44 32 76t77 32t77 -32t32 -76z" />
    <glyph glyph-name="parenleft" unicode="(" horiz-adv-x="682" 
d="M574 -332q0 -18 -19 -18q-11 0 -46 29q-226 186 -323 398q-95 208 -95 505t95 505q97 212 323 398q35 29 46 29q19 0 19 -18q0 -8 -24 -32q-300 -295 -300 -882t300 -882q24 -24 24 -32z" />
    <glyph glyph-name="parenright" unicode=")" horiz-adv-x="682" 
d="M591 582q0 -297 -95 -505q-97 -212 -323 -398q-35 -29 -46 -29q-19 0 -19 18q0 8 24 32q300 295 300 882t-300 882q-24 24 -24 32q0 18 19 18q11 0 46 -29q226 -186 323 -398q95 -208 95 -505z" />
    <glyph glyph-name="asterisk" unicode="*" horiz-adv-x="964" 
d="M850 973q0 -24 -16.5 -43.5t-40.5 -19.5q-14 0 -26 9l-258 182l30 -319q0 -49 -57 -49q-56 0 -56 49v5l29 314l-257 -182q-13 -9 -27 -9q-23 0 -40 19.5t-17 43.5q0 31 27 43l287 132l-287 132q-27 13 -27 44q0 23 17 43t40 20q14 0 27 -9l257 -183l-29 319q0 49 56 49
q57 0 57 -49v-5l-30 -314l258 183q12 9 26 9q24 0 40.5 -20t16.5 -43q0 -31 -26 -44l-287 -132l287 -132q26 -12 26 -43z" />
    <glyph glyph-name="plus" unicode="+" horiz-adv-x="1591" 
d="M1421 582q0 -41 -37 -41h-547v-546q0 -39 -41 -39t-41 39v546h-546q-39 0 -39 41t39 41h546v548q0 37 41 37t41 -37v-548h547q37 0 37 -41z" />
    <glyph glyph-name="comma" unicode="," horiz-adv-x="512" 
d="M376 2q0 -152 -84 -287q-69 -110 -103 -110q-20 0 -20 22q0 8 14 23q148 157 148 352q0 14 -4 36q-33 -38 -82 -38q-45 0 -77 32t-32 77q0 44 32 76t77 32q71 0 106 -77q25 -57 25 -138z" />
    <glyph glyph-name="hyphen" unicode="-" horiz-adv-x="768" 
d="M673 582q0 -41 -37 -41h-502q-39 0 -39 41t39 41h502q37 0 37 -41z" />
    <glyph glyph-name="period" unicode="." horiz-adv-x="512" 
d="M365 109q0 -45 -32 -77t-77 -32t-77 32t-32 77q0 44 32 76t77 32t77 -32t32 -76z" />
    <glyph glyph-name="slash" unicode="/" horiz-adv-x="569" 
d="M569 1475q0 -6 -2 -13l-488 -1788q-7 -26 -40 -26q-39 0 -39 41q0 6 2 13l488 1788q7 26 40 26q39 0 39 -41z" />
    <glyph glyph-name="zero" unicode="0" 
d="M950 666q0 -309 -78 -469q-118 -242 -362 -242q-226 0 -344 209q-93 164 -93 502q0 315 76 475q117 247 363 247q238 0 355 -232q83 -165 83 -490zM777 564v260q0 216 -37 329q-61 190 -230 190q-168 0 -229 -191q-37 -114 -37 -329q0 -41 1 -122v-121q0 -239 33 -360
q59 -220 232 -220q172 0 233 212q34 120 34 352z" />
    <glyph glyph-name="one" unicode="1" 
d="M856 0q-71 6 -136 6h-404q-64 0 -135 -6v64q12 0 37.5 -1t38.5 -1q153 0 175 43q9 18 9 53v1087q-109 -54 -272 -54v64q250 0 379 133h10q29 0 35 -14q3 -6 3 -39v-1181q0 -33 8 -50q15 -33 117 -40q14 -1 135 0v-64z" />
    <glyph glyph-name="two" unicode="2" 
d="M927 362l-57 -362h-774v18q0 33 24 60l400 445q218 243 218 461q0 139 -69 234q-76 106 -210 106q-97 0 -173 -59t-109 -153q7 2 17 2q121 0 121 -109q0 -46 -31 -78t-77 -32q-111 0 -111 116q0 157 116 267t274 110q185 0 310 -108q131 -114 131 -296q0 -118 -77 -228
q-44 -63 -165 -181l-428 -415h416q136 0 156 16.5t46 185.5h52z" />
    <glyph glyph-name="three" unicode="3" 
d="M944 356q0 -172 -137 -290q-131 -111 -306 -111q-158 0 -282 82q-140 93 -140 244q0 53 32 87t85 34q50 0 83.5 -33.5t33.5 -83.5q0 -51 -34.5 -83t-84.5 -32q-10 0 -20 1q46 -77 139 -120q85 -39 181 -39q125 0 187 116q48 91 48 228q0 145 -51 234q-63 113 -197 113
h-108q-33 0 -33 23q0 22 48 28q33 1 65 3q124 8 185 108q58 94 58 238q0 102 -48 165q-53 70 -152 70q-194 0 -278 -130q129 2 129 -105q0 -46 -29.5 -76t-75.5 -30q-48 0 -77.5 29.5t-29.5 77.5q0 132 123 213q108 71 247 71q142 0 254 -71q130 -82 130 -216
q0 -126 -87 -229q-81 -97 -206 -138q145 -29 243 -129q105 -107 105 -249z" />
    <glyph glyph-name="four" unicode="4" 
d="M973 345h-208v-196q0 -30 9 -48q19 -38 194 -37v-64q-83 6 -142 6h-285q-56 0 -139 -6v64q47 -1 64 -1q110 0 130 38q9 17 9 48v196h-555v64l640 978q16 25 42 25q25 0 31 -17q2 -6 2 -38v-948h208v-64zM617 409v777l-509 -777h509z" />
    <glyph glyph-name="five" unicode="5" 
d="M927 420q0 -190 -132.5 -327.5t-321.5 -137.5q-155 0 -266 113t-111 268q0 111 101 111q44 0 74.5 -29t30.5 -73t-30.5 -73.5t-74.5 -29.5q-18 0 -34 5q29 -101 115.5 -168t190.5 -67q145 0 224 136q49 85 49 286q0 178 -37 262q-59 134 -178 134q-89 0 -160 -43
q-45 -27 -90 -80q-38 -43 -46 -43q-29 0 -29 41v648q0 34 20 34q9 0 26 -6q166 -60 278 -60q135 0 282 62q12 5 18 5q20 0 20 -23q0 -16 -36 -56q-144 -161 -366 -161q-86 0 -176 27v-405q109 106 264 106q174 0 289 -144q106 -133 106 -312z" />
    <glyph glyph-name="six" unicode="6" 
d="M945 425q0 -190 -118 -327q-124 -143 -311 -143q-242 0 -353 247q-83 183 -83 458q0 205 75 375q85 191 245 287q111 66 229 66q112 0 184 -54q81 -61 81 -169q0 -44 -26.5 -73t-69.5 -29q-41 0 -68.5 28t-27.5 69q0 98 114 93q-57 85 -183 85q-81 0 -155 -47
q-210 -133 -210 -607q84 206 260 206q183 0 303 -143q114 -135 114 -322zM758 371v104q0 160 -38 238q-63 129 -193 129t-199 -127q-57 -103 -57 -244q0 -206 38 -302q26 -67 80 -110q59 -47 127 -47q140 0 206 136q36 74 36 223z" />
    <glyph glyph-name="seven" unicode="7" 
d="M959 1328q0 -32 -19 -59l-283 -395q-94 -131 -128 -356q-23 -151 -23 -449q0 -114 -96 -114q-95 0 -95 114q0 384 256 784q78 109 232 329h-499q-117 0 -136 -12q-23 -15 -52 -190h-52l69 430h52q2 -20 14 -33q31 -34 253 -34h507v-15z" />
    <glyph glyph-name="eight" unicode="8" 
d="M944 349q0 -170 -134 -285q-127 -109 -300 -109q-168 0 -293 94q-138 104 -138 266q0 235 301 384q-55 32 -154 112q-91 99 -91 230q0 149 116 250q111 97 262 97q146 0 255 -81q121 -89 121 -229q0 -194 -253 -323q93 -56 109 -67q60 -40 97 -81q102 -113 102 -258z
M797 1078q0 112 -89 188q-84 72 -198 72q-105 0 -189 -54q-95 -62 -95 -162q0 -91 106 -168q30 -22 257 -168q208 120 208 292zM841 276q0 76 -47 135q-33 41 -110 93.5t-257 161.5q-244 -134 -244 -351q0 -130 101 -219q97 -84 229 -84q123 0 220 69q108 77 108 195z" />
    <glyph glyph-name="nine" unicode="9" 
d="M944 687q0 -174 -45 -313q-56 -173 -175 -288q-135 -131 -303 -131q-120 0 -198 51q-92 59 -92 173q0 100 95 100q41 0 69 -27.5t28 -68.5q0 -44 -32.5 -72t-76.5 -23q64 -76 205 -76q77 0 148 47q120 79 163 274q27 120 27 330q-82 -209 -261 -209q-183 0 -303 143
q-114 136 -114 322q0 202 133 339q126 130 307 130q102 0 187 -53q238 -148 238 -648zM753 878q0 202 -34 293q-62 167 -200 167t-209 -132q-43 -80 -43 -247v-86q0 -161 37 -238q64 -132 195 -132q130 0 199 129q55 103 55 246z" />
    <glyph glyph-name="colon" unicode=":" horiz-adv-x="546" 
d="M382 749q0 -45 -32 -77t-77 -32t-77 32t-32 77q0 44 32 76t77 32t77 -32t32 -76zM382 109q0 -45 -32 -77t-77 -32t-77 32t-32 77q0 44 32 76t77 32t77 -32t32 -76z" />
    <glyph glyph-name="semicolon" unicode=";" horiz-adv-x="546" 
d="M382 749q0 -44 -32.5 -76.5t-76.5 -32.5t-76.5 32.5t-32.5 76.5t32.5 76t76.5 32t76.5 -32t32.5 -76zM404 2q0 -216 -146 -366q-30 -31 -41 -31q-20 0 -20 22q0 8 14 23q148 161 148 352q0 14 -4 36q-33 -38 -82 -38q-44 0 -76.5 32.5t-32.5 76.5t32.5 76t76.5 32
q71 0 105 -76q26 -58 26 -139z" />
    <glyph glyph-name="less" unicode="&#x3c;" horiz-adv-x="1591" 
d="M1421 31q0 -41 -41 -41q-8 0 -14 3l-1169 552q-27 13 -27 37t27 37l1169 552q6 3 14 3q41 0 41 -41q0 -26 -24 -37l-1090 -514l1090 -514q24 -11 24 -37z" />
    <glyph glyph-name="equal" unicode="=" horiz-adv-x="1591" 
d="M1421 784q0 -41 -37 -41h-1175q-39 0 -39 41t39 41h1175q37 0 37 -41zM1421 380q0 -41 -37 -41h-1175q-39 0 -39 41t39 41h1175q37 0 37 -41z" />
    <glyph glyph-name="greater" unicode="&#x3e;" horiz-adv-x="1591" 
d="M1421 582q0 -24 -27 -37l-1169 -552q-6 -3 -14 -3q-41 0 -41 41q0 26 24 37l1090 514l-1090 514q-24 11 -24 37q0 41 41 41q8 0 14 -3l1169 -552q27 -13 27 -37z" />
    <glyph glyph-name="bracketleft" unicode="[" horiz-adv-x="682" 
d="M571 -309q0 -41 -68 -41h-391v1864h391q68 0 68 -40q0 -41 -68 -41h-309v-1701h309q68 0 68 -41z" />
    <glyph glyph-name="backslash" unicode="\" horiz-adv-x="569" 
d="M569 -311q0 -41 -39 -41q-33 0 -40 26l-488 1788q-2 7 -2 13q0 41 39 41q33 0 40 -26l488 -1788q2 -7 2 -13z" />
    <glyph glyph-name="bracketright" unicode="]" horiz-adv-x="682" 
d="M570 -350h-391q-68 0 -68 41t68 41h309v1701h-309q-68 0 -68 41q0 40 68 40h391v-1864z" />
    <glyph glyph-name="braceleft" unicode="{" horiz-adv-x="983" 
d="M827 -327q0 -23 -41 -23q-174 0 -285 78q-73 51 -93 116q-13 42 -13 149v313q0 117 -75 184q-69 61 -187 70q-33 2 -33 22q0 18 18 21t35 4q242 31 242 252v313q0 107 13 149q20 65 93 116q109 77 285 77q41 0 41 -22q0 -19 -18 -23q-154 -9 -237 -94q-42 -43 -54 -114
q-5 -34 -5 -129v-277q0 -89 -21 -132q-47 -96 -202 -141q155 -45 202 -141q21 -42 21 -131v-277q0 -95 5 -129q12 -71 54 -114q83 -85 237 -94q18 -4 18 -23z" />
    <glyph glyph-name="bar" unicode="|" horiz-adv-x="410" 
d="M246 -311q0 -41 -41 -41t-41 41v1788q0 39 41 39t41 -39v-1788z" />
    <glyph glyph-name="braceright" unicode="}" horiz-adv-x="983" 
d="M883 582q0 -17 -18 -20t-35 -4q-242 -31 -242 -252v-313q0 -107 -13 -149q-20 -65 -93 -116q-111 -78 -285 -78q-41 0 -41 23q0 19 18 23q154 9 237 94q42 43 54 114q5 34 5 129v277q0 89 21 131q47 96 202 141q-155 45 -202 141q-21 43 -21 132v277q0 95 -5 129
q-12 71 -54 114q-83 85 -237 94q-18 4 -18 23q0 22 41 22q176 0 285 -77q73 -51 93 -116q13 -42 13 -149v-313q0 -117 75 -184q69 -61 187 -70q33 -2 33 -23z" />
    <glyph glyph-name="asciitilde" unicode="~" horiz-adv-x="1058" 
d="M1021 659q0 -111 -70 -193q-73 -86 -181 -86q-100 0 -247.5 116.5t-233.5 116.5q-136 0 -179 -131q-6 -29 -13 -58q-12 -43 -30 -43q-30 0 -30 57q0 109 71 191q74 87 181 87q100 0 247.5 -117t233.5 -117q155 0 192 184q9 49 31 49q28 0 28 -56z" />
    <glyph glyph-name="plusminus" unicode="&#xb1;" horiz-adv-x="1591" 
d="M1421 41q0 -41 -37 -41h-1175q-39 0 -39 41t39 41h546v502h-546q-39 0 -39 41t39 41h546v546q0 39 41 39t41 -39v-546h547q37 0 37 -41t-37 -41h-547v-502h547q37 0 37 -41z" />
    <glyph glyph-name="mu1" unicode="&#xb5;" horiz-adv-x="1120" 
d="M1043 187q0 -84 -45 -141q-50 -62 -131 -62q-84 0 -129 69q-40 60 -40 148q-101 -225 -317 -225q-83 0 -144 25v-66q0 -221 -37 -352h-148q37 173 37 311v1029h147v-663q0 -237 159 -237q129 0 212 105q77 97 77 229v566h148v-765q0 -39 20 -71q23 -37 60 -37
q78 0 78 171q0 -9 -2 86h55v-120z" />
    <glyph glyph-name="divide" unicode="&#xf7;" horiz-adv-x="1591" 
d="M909 1030q0 -47 -33.5 -80t-80.5 -33t-80.5 33t-33.5 80q0 46 34 79.5t80 33.5t80 -33.5t34 -79.5zM1421 582q0 -41 -37 -41h-1175q-39 0 -39 41t39 41h1175q37 0 37 -41zM909 134q0 -46 -34 -79.5t-80 -33.5t-80 33.5t-34 79.5q0 47 33.5 80t80.5 33t80.5 -33t33.5 -80z
" />
    <glyph glyph-name="oe" unicode="&#x153;" horiz-adv-x="1707" 
 />
    <glyph glyph-name="florin" unicode="&#x192;" horiz-adv-x="1033" 
d="M1079 1284q-9 -101 -102 -101q-39 0 -65 25.5t-23 64.5q3 36 29 63.5t62 32.5q-41 31 -94 31q-19 0 -34 -4q-35 -11 -68 -63q-9 -16 -65 -311l-26 -138h208q26 0 22 -27l-7 -16q-4 -25 -29 -25h-208l-93 -503q-81 -436 -166 -577q-95 -158 -208 -158q-71 0 -122 37
q-58 41 -58 109q0 50 30 84.5t79 34.5q75 0 75 -71q0 -44 -29.5 -76t-72.5 -34q37 -37 107 -37q67 0 109 121q26 75 117 559l95 511h-173q-26 0 -20 26l5 17q6 25 31 25h171l24 128q23 121 40 180q32 107 78 160q85 94 185 94q48 0 94 -20q110 -48 102 -142z" />
    <glyph glyph-name="fronted" unicode="&#x2c2;" horiz-adv-x="1155" 
d="M1115 187l-1076 470v49l1076 466v-87l-926 -402l926 -406v-90z" />
    <glyph glyph-name="backed" unicode="&#x2c3;" horiz-adv-x="1155" 
d="M1113 653l-1076 -466v86l927 402l-927 406v91l1076 -470v-49z" />
    <glyph glyph-name="macronsubnosp" unicode="&#x331;" horiz-adv-x="0" 
d="M-229 -346h-582v82h582v-82z" />
    <glyph glyph-name="underscoredblnosp" unicode="&#x333;" horiz-adv-x="0" 
d="M0 -230h-1040v82h1040v-82zM0 -410h-1040v82h1040v-82z" />
    <glyph glyph-name="barmidshortnosp" unicode="&#x335;" horiz-adv-x="0" 
d="M0 468q0 -41 -37 -41h-964q-39 0 -39 41t39 41h964q37 0 37 -41z" />
    <glyph glyph-name="barmidlongnosp" unicode="&#x336;" horiz-adv-x="0" 
d="M232 468q0 -41 -37 -41h-1428q-39 0 -39 41t39 41h1428q37 0 37 -41z" />
    <glyph glyph-name="slashshortnosp" unicode="&#x337;" horiz-adv-x="0" 
d="M-314 919q0 -7 -2 -12l-331 -906q-9 -25 -38 -25q-41 0 -41 41q0 7 2 12l331 906q9 25 38 25q41 0 41 -41z" />
    <glyph glyph-name="slashlongnosp" unicode="&#x338;" horiz-adv-x="0" 
d="M-162 1337q0 -7 -2 -12l-635 -1742q-9 -25 -38 -25q-41 0 -41 41q0 7 2 12l635 1742q9 25 38 25q41 0 41 -41z" />
    <glyph glyph-name="pi" unicode="&#x3c0;" horiz-adv-x="1134" 
d="M1084 823h-267v-162q0 -366 108 -563q21 -38 21 -53q0 -66 -81 -66q-80 0 -117 197q-24 127 -24 272v375h-228l-80 -704q-16 -140 -92 -140q-73 0 -73 62q0 11 10 41q102 311 168 741h-191q-57 0 -118.5 -41t-53.5 -41q-16 0 -16 16q0 39 60 100q67 66 168 66h806v-100z
" />
    <glyph glyph-name="endash" unicode="&#x2013;" 
d="M929 582q0 -41 -37 -41h-758q-39 0 -39 41t39 41h758q37 0 37 -41z" />
    <glyph glyph-name="emdash" unicode="&#x2014;" horiz-adv-x="2048" 
d="M1953 582q0 -41 -37 -41h-1782q-39 0 -39 41t39 41h1782q37 0 37 -41z" />
    <glyph glyph-name="zerosuperior" unicode="&#x2070;" horiz-adv-x="801" 
d="M739 1032q0 -210 -59 -317q-91 -166 -280 -166q-176 0 -267 144q-71 112 -71 339q0 211 58 320q91 170 281 170q184 0 275 -160q63 -111 63 -330zM590 964v173q0 335 -190 335t-190 -336q0 -27 1 -81v-80q0 -158 25 -238q42 -138 164 -138q190 0 190 365z" />
    <glyph glyph-name="foursuperior" unicode="&#x2074;" horiz-adv-x="801" 
d="M757 808h-156v-120q0 -18 5 -27q11 -20 147 -19v-64q-78 5 -105 5h-236q-25 0 -103 -5v64q53 -1 58 -1q48 0 62 4q32 9 32 43v120h-416v56l481 653q15 21 40 21q35 0 35 -47v-620h156v-63zM470 871v476l-352 -476h352z" />
    <glyph glyph-name="fivesuperior" unicode="&#x2075;" horiz-adv-x="801" 
d="M722 868q0 -137 -108 -230q-103 -89 -242 -89q-114 0 -201 73q-92 78 -92 190q0 84 86 84q36 0 62.5 -21.5t26.5 -56.5q0 -38 -30.5 -59.5t-68.5 -18.5q26 -60 86.5 -96.5t127.5 -36.5q103 0 159 86q35 54 35 185q0 117 -26 169q-42 84 -125 84q-86 0 -154 -55.5
t-67 -55.5q-32 0 -32 38v430q0 33 25 33q9 0 22 -4q128 -40 206 -40q61 0 215 43q7 2 9 2q25 0 25 -26q0 -14 -30 -44q-109 -110 -281 -110q-60 0 -122 15v-235q80 59 188 59q129 0 217.5 -92t88.5 -221z" />
    <glyph glyph-name="sixsuperior" unicode="&#x2076;" horiz-adv-x="801" 
d="M735 872q0 -137 -97 -230t-235 -93q-180 0 -267 158q-69 125 -69 321q0 143 60 260q66 126 185 189q85 45 176 45q84 0 141 -36q68 -43 68 -122q0 -78 -82 -78t-82 74q0 65 73 71q-42 37 -115 37q-58 0 -111 -30q-146 -82 -152 -354q67 107 184 107q135 0 229 -92
t94 -227zM575 836v69q0 234 -163 234q-89 0 -139 -77q-43 -66 -43 -160q0 -136 27 -196q45 -99 146 -99q172 0 172 229z" />
    <glyph glyph-name="sevensuperior" unicode="&#x2077;" horiz-adv-x="801" 
d="M746 1472q0 -26 -16 -46l-212 -262q-74 -91 -97 -253q-14 -92 -14 -276q0 -86 -82 -86t-82 86q0 256 194 527q1 2 161 203h-373q-65 0 -77.5 -7t-34.5 -128h-60l56 306h56q2 -17 9 -24q21 -20 182 -20h390v-20z" />
    <glyph glyph-name="eightsuperior" unicode="&#x2078;" horiz-adv-x="801" 
d="M735 821q0 -123 -109 -201q-99 -71 -226 -71q-124 0 -221 61q-112 71 -112 188q0 157 213 257q-171 93 -171 226q0 108 95 178q86 63 198 63q108 0 193 -53q99 -61 99 -163q0 -129 -178 -216q219 -115 219 -269zM605 1306q0 73 -68 120q-60 42 -137 42q-70 0 -130 -31
q-73 -38 -73 -102q0 -54 75 -103q31 -20 187 -109q146 77 146 183zM638 773q0 74 -114 143q-49 30 -187 104q-172 -86 -172 -222q0 -86 78 -141q69 -50 159 -50q83 0 153 41q83 48 83 125z" />
    <glyph glyph-name="ninesuperior" unicode="&#x2079;" horiz-adv-x="801" 
d="M735 1046q0 -115 -35 -212q-44 -123 -140 -201q-102 -84 -227 -84q-90 0 -151 34q-76 42 -76 125q0 77 81 77q34 0 58.5 -20.5t24.5 -53.5q0 -60 -66 -72q47 -32 127 -32q54 0 106 30q132 77 137 352q-67 -108 -185 -108q-135 0 -228.5 92.5t-93.5 226.5q0 140 99 231
t240 91q178 0 262 -158q67 -125 67 -318zM572 1173q0 131 -25 191q-44 104 -141 104q-99 0 -148 -82q-30 -50 -30 -159v-71q0 -222 163 -222q90 0 139 78q42 66 42 161z" />
    <glyph glyph-name="plussuperior" unicode="&#x207a;" horiz-adv-x="1212" 
d="M1085 976q0 -37 -38 -37h-404v-402q0 -40 -37 -40t-37 40v402h-402q-40 0 -40 37t40 37h402v404q0 38 37 38t37 -38v-404h404q38 0 38 -37z" />
    <glyph glyph-name="minussuperior" unicode="&#x207b;" horiz-adv-x="1212" 
d="M1085 976q0 -37 -38 -37h-880q-40 0 -40 37t40 37h880q38 0 38 -37z" />
    <glyph glyph-name="equalsuperior" unicode="&#x207c;" horiz-adv-x="1212" 
d="M1085 1170q0 -37 -38 -37h-880q-40 0 -40 37q0 38 40 38h880q38 0 38 -38zM1085 782q0 -38 -38 -38h-880q-40 0 -40 38q0 37 40 37h880q38 0 38 -37z" />
    <glyph glyph-name="parenleftsuperior" unicode="&#x207d;" horiz-adv-x="531" 
d="M450 368q0 -22 -24 -22q-11 0 -41 22q-168 122 -241 261q-76 143 -76 347t76 347q73 139 241 261q30 22 41 22q24 0 24 -22q0 -10 -21 -29q-222 -196 -222 -579t222 -579q21 -19 21 -29z" />
    <glyph glyph-name="parenrightsuperior" unicode="&#x207e;" horiz-adv-x="531" 
d="M463 976q0 -204 -76 -347q-73 -139 -241 -261q-30 -22 -41 -22q-24 0 -24 22q0 10 21 29q222 196 222 579t-222 579q-21 19 -21 29q0 22 24 22q11 0 41 -22q168 -122 241 -261q76 -143 76 -347z" />
    <glyph glyph-name="nsuperior" unicode="&#x207f;" horiz-adv-x="905" 
d="M866 579q-150 4 -191 4q-35 0 -190 -4v64q32 -1 46 -1q41 0 55 5q24 10 24 44v345q0 141 -108 141q-89 0 -148 -64.5t-59 -153.5v-266q0 -45 52 -50q25 -2 72 0v-64q-150 4 -189 4q-35 0 -190 -4v64q32 -1 45 -1q45 0 58 6q21 10 21 49v381q0 56 -38 67q-11 3 -86 2v65
l245 17v-123q80 122 227 122q229 0 229 -220v-333q0 -39 125 -32v-64z" />
    <glyph glyph-name="zeroinferior" unicode="&#x2080;" horiz-adv-x="801" 
d="M739 184q0 -210 -59 -317q-91 -166 -280 -166q-176 0 -267 144q-71 112 -71 339q0 211 58 320q91 170 281 170q184 0 275 -160q63 -111 63 -330zM590 116v173q0 335 -190 335t-190 -336q0 -27 1 -81v-80q0 -158 25 -238q42 -138 164 -138q190 0 190 365z" />
    <glyph glyph-name="oneinferior" unicode="&#x2081;" horiz-adv-x="801" 
d="M668 -270q-67 5 -105 5h-316q-38 0 -105 -5v64q13 0 41.5 -1t42.5 -1q93 0 106 24q5 9 5 30v708q-80 -31 -204 -31v62q193 0 290 89h12q38 0 38 -45v-786q0 -18 5 -28q11 -22 190 -21v-64z" />
    <glyph glyph-name="twoinferior" unicode="&#x2082;" horiz-adv-x="801" 
d="M724 -8l-46 -261h-599v22q0 26 21 47l300 296q160 158 160 299q0 93 -52 153q-55 63 -147 63q-136 0 -195 -119q98 -2 98 -83q0 -36 -27 -59.5t-64 -23.5q-94 0 -94 87q0 113 97 190q90 71 206 71q136 0 232 -70q108 -78 108 -209q0 -82 -60 -158q-33 -42 -125 -121
l-300 -259h300q82 0 95 9.5t33 125.5h59z" />
    <glyph glyph-name="threeinferior" unicode="&#x2083;" horiz-adv-x="801" 
d="M735 -22q0 -124 -112 -205q-101 -72 -230 -72q-117 0 -212 54q-114 64 -114 173q0 90 97 90q40 0 69 -24t29 -63q0 -82 -93 -87q74 -85 219 -85q86 0 130 70q36 58 36 149q0 220 -176 220q-87 0 -69 -1q-47 3 -47 27t94 30q88 5 130.5 67t42.5 153q0 146 -140 146
q-122 0 -187 -67q86 -7 86 -79q0 -80 -89 -80q-90 0 -90 81q0 96 100 152q83 47 187 47q106 0 193 -47q105 -57 105 -154q0 -81 -59 -149q-52 -61 -134 -93q97 -26 161 -89q73 -71 73 -164z" />
    <glyph glyph-name="fourinferior" unicode="&#x2084;" horiz-adv-x="801" 
d="M757 -40h-156v-120q0 -18 5 -27q11 -20 147 -19v-64q-78 5 -105 5h-236q-25 0 -103 -5v64q53 -1 58 -1q48 0 62 4q32 9 32 43v120h-416v56l481 653q15 21 40 21q35 0 35 -47v-620h156v-63zM470 23v476l-352 -476h352z" />
    <glyph glyph-name="fiveinferior" unicode="&#x2085;" horiz-adv-x="801" 
d="M722 20q0 -137 -108 -230q-103 -89 -242 -89q-114 0 -201 73q-92 78 -92 190q0 84 86 84q36 0 62.5 -21.5t26.5 -56.5q0 -38 -30.5 -59.5t-68.5 -18.5q26 -60 86.5 -96.5t127.5 -36.5q103 0 159 86q35 54 35 185q0 117 -26 169q-42 84 -125 84q-86 0 -154 -55.5
t-67 -55.5q-32 0 -32 38v430q0 33 25 33q9 0 22 -4q128 -40 206 -40q61 0 215 43q7 2 9 2q25 0 25 -26q0 -14 -30 -44q-109 -110 -281 -110q-60 0 -122 15v-235q80 59 188 59q129 0 217.5 -92t88.5 -221z" />
    <glyph glyph-name="sixinferior" unicode="&#x2086;" horiz-adv-x="801" 
d="M735 24q0 -137 -97 -230t-235 -93q-180 0 -267 158q-69 125 -69 321q0 143 60 260q66 126 185 189q85 45 176 45q84 0 141 -36q68 -43 68 -122q0 -78 -82 -78t-82 74q0 65 73 71q-42 37 -115 37q-58 0 -111 -30q-146 -82 -152 -354q67 107 184 107q135 0 229 -92t94 -227
zM575 -12v69q0 234 -163 234q-89 0 -139 -77q-43 -66 -43 -160q0 -136 27 -196q45 -99 146 -99q172 0 172 229z" />
    <glyph glyph-name="seveninferior" unicode="&#x2087;" horiz-adv-x="801" 
d="M746 624q0 -26 -16 -46l-212 -262q-74 -91 -97 -253q-14 -92 -14 -276q0 -86 -82 -86t-82 86q0 256 194 527q1 2 161 203h-373q-65 0 -77.5 -7t-34.5 -128h-60l56 306h56q2 -17 9 -24q21 -20 182 -20h390v-20z" />
    <glyph glyph-name="eightinferior" unicode="&#x2088;" horiz-adv-x="801" 
d="M735 -27q0 -123 -109 -201q-99 -71 -226 -71q-124 0 -221 61q-112 71 -112 188q0 157 213 257q-171 93 -171 226q0 108 95 178q86 63 198 63q108 0 193 -53q99 -61 99 -163q0 -129 -178 -216q219 -115 219 -269zM605 458q0 73 -68 120q-60 42 -137 42q-70 0 -130 -31
q-73 -38 -73 -102q0 -54 75 -103q31 -20 187 -109q146 77 146 183zM638 -75q0 74 -114 143q-49 30 -187 104q-172 -86 -172 -222q0 -86 78 -141q69 -50 159 -50q83 0 153 41q83 48 83 125z" />
    <glyph glyph-name="nineinferior" unicode="&#x2089;" horiz-adv-x="801" 
d="M735 198q0 -115 -35 -212q-44 -123 -140 -201q-102 -84 -227 -84q-90 0 -151 34q-76 42 -76 125q0 77 81 77q34 0 58.5 -20.5t24.5 -53.5q0 -60 -66 -72q47 -32 127 -32q54 0 106 30q132 77 137 352q-67 -108 -185 -108q-135 0 -228.5 92.5t-93.5 226.5q0 140 99 231
t240 91q178 0 262 -158q67 -125 67 -318zM572 325q0 131 -25 191q-44 104 -141 104q-99 0 -148 -82q-30 -50 -30 -159v-71q0 -222 163 -222q90 0 139 78q42 66 42 161z" />
    <glyph glyph-name="plusinferior" unicode="&#x208a;" horiz-adv-x="1212" 
d="M1085 128q0 -37 -38 -37h-404v-402q0 -40 -37 -40t-37 40v402h-402q-40 0 -40 37t40 37h402v404q0 38 37 38t37 -38v-404h404q38 0 38 -37z" />
    <glyph glyph-name="hypheninferior" unicode="&#x208b;" horiz-adv-x="1212" 
d="M1085 128q0 -37 -38 -37h-880q-40 0 -40 37t40 37h880q38 0 38 -37z" />
    <glyph glyph-name="equalinferior" unicode="&#x208c;" horiz-adv-x="1212" 
d="M1085 322q0 -37 -38 -37h-880q-40 0 -40 37q0 38 40 38h880q38 0 38 -38zM1085 -66q0 -38 -38 -38h-880q-40 0 -40 38q0 37 40 37h880q38 0 38 -37z" />
    <glyph glyph-name="parenleftinferior" unicode="&#x208d;" horiz-adv-x="531" 
d="M450 -420q0 -22 -24 -22q-11 0 -41 22q-168 122 -241 261q-76 143 -76 347t76 347q73 139 241 261q30 22 41 22q24 0 24 -22q0 -10 -21 -29q-222 -196 -222 -579t222 -579q21 -19 21 -29z" />
    <glyph glyph-name="parenrightinferior" unicode="&#x208e;" horiz-adv-x="531" 
d="M463 188q0 -204 -76 -347q-73 -139 -241 -261q-30 -22 -41 -22q-24 0 -24 22q0 10 21 29q222 196 222 579t-222 579q-21 19 -21 29q0 22 24 22q11 0 41 -22q168 -122 241 -261q76 -143 76 -347z" />
    <glyph glyph-name="partialdiff" unicode="&#x2202;" horiz-adv-x="1087" 
d="M1036 810q0 -313 -128 -556q-159 -299 -443 -299q-183 0 -308 127t-125 311q0 194 130 350q161 193 390 193q108 0 190 -69q76 -66 108 -173h2q16 132 16 218q0 199 -76 335q-95 168 -278 168q-208 0 -271 -162q7 1 14 1q38 0 65 -27t27 -65q0 -37 -27.5 -64.5
t-64.5 -27.5q-40 0 -66.5 29t-26.5 70q0 27 19 79q80 218 328 218q245 0 393 -212q132 -188 132 -444zM827 562q0 135 -65 226q-74 103 -203 103q-186 0 -284 -182q-34 -63 -55 -194q-18 -111 -18 -204q0 -131 64 -211q70 -88 197 -88q180 0 282 194q82 158 82 356z" />
    <glyph glyph-name="product" unicode="&#x220f;" horiz-adv-x="1652" 
d="M1551 -255q0 -35 -27 -35h-478q-27 0 -27 35t27 35h81q72 0 72 55v1549h-746v-1549q0 -55 72 -55h81q27 0 27 -35t-27 -35h-478q-27 0 -27 35t27 35h81q72 0 72 55v1494q0 55 -72 55h-81q-27 0 -27 35t27 35h1396q27 0 27 -35t-27 -35h-81q-72 0 -72 -55v-1494
q0 -55 72 -55h81q27 0 27 -35z" />
    <glyph glyph-name="coproduct" unicode="&#x2210;" horiz-adv-x="1652" 
d="M1551 -255q0 -35 -27 -35h-1396q-27 0 -27 35t27 35h81q72 0 72 55v1494q0 55 -72 55h-81q-27 0 -27 35t27 35h478q27 0 27 -35t-27 -35h-81q-72 0 -72 -55v-1549h746v1549q0 55 -72 55h-81q-27 0 -27 35t27 35h478q27 0 27 -35t-27 -35h-81q-72 0 -72 -55v-1494
q0 -55 72 -55h81q27 0 27 -35z" />
    <glyph glyph-name="summation" unicode="&#x2211;" horiz-adv-x="1700" 
d="M1665 1044h-51q-80 215 -328 291q-156 47 -457 47h-597l560 -778q6 -8 6 -22t-8 -24l-604 -747h680q284 0 439 50q235 77 309 287h50l-148 -438h-1463q-17 0 -17 20q0 6 5 12l628 775l-628 872q-6 8 -6 35q0 30 19 30h1462z" />
    <glyph glyph-name="minus" unicode="&#x2212;" horiz-adv-x="1591" 
d="M1421 582q0 -41 -37 -41h-1175q-39 0 -39 41t39 41h1175q37 0 37 -41z" />
    <glyph glyph-name="slashmath" unicode="&#x2215;" 
d="M889 1505q0 -8 -2 -13l-673 -1848q-9 -26 -40 -26q-39 0 -39 41q0 8 2 13l673 1848q9 26 40 26q39 0 39 -41z" />
    <glyph glyph-name="backslashmath" unicode="&#x2216;" 
d="M889 -341q0 -41 -39 -41q-31 0 -40 26l-673 1848q-2 5 -2 13q0 41 39 41q31 0 40 -26l673 -1848q2 -5 2 -13z" />
    <glyph glyph-name="asteriskmath" unicode="&#x2217;" horiz-adv-x="964" 
d="M850 373q0 -24 -16.5 -43.5t-40.5 -19.5q-14 0 -26 9l-258 182l30 -319q0 -49 -57 -49q-56 0 -56 49v5l29 314l-257 -182q-13 -9 -27 -9q-23 0 -40 19.5t-17 43.5q0 31 27 43l287 132l-287 132q-27 13 -27 44q0 23 17 43t40 20q14 0 27 -9l257 -183l-29 319q0 49 56 49
q57 0 57 -49v-5l-30 -314l258 183q12 9 26 9q24 0 40.5 -20t16.5 -43q0 -31 -26 -44l-287 -132l287 -132q26 -12 26 -43z" />
    <glyph glyph-name="radical" unicode="&#x221a;" horiz-adv-x="1706" 
d="M1747 1565q0 -10 -2 -14l-952 -1975q-9 -18 -56 -18q-13 0 -18 12l-408 897q-129 -98 -135 -98q-29 0 -29 29q0 9 9 16l243 184q8 6 15 6q14 0 20 -14l367 -807l870 1804q9 19 35 19q41 0 41 -41z" />
    <glyph glyph-name="cuberoot" unicode="&#x221b;" horiz-adv-x="1706" 
d="M1038 935q0 -118 -101 -196q-93 -71 -215 -71q-111 0 -198 53q-103 62 -103 166q0 89 91 89t91 -85q0 -79 -83 -85q68 -79 197 -79q151 0 151 208q0 210 -160 210q-85 0 -64 -2q-44 4 -44 28q0 22 35 28q27 1 53 3q80 6 118.5 64.5t38.5 145.5q0 138 -126 138
q-111 0 -169 -61q78 -8 78 -77q0 -79 -84 -79q-85 0 -85 80q0 92 90 146q77 47 175 47q99 0 180 -47q95 -55 95 -148q0 -158 -173 -232q89 -26 148 -88q64 -68 64 -156zM1747 1565q0 -10 -2 -14l-952 -1975q-9 -18 -56 -18q-13 0 -18 12l-408 897q-129 -98 -135 -98
q-29 0 -29 29q0 9 9 16l243 184q8 6 15 6q14 0 20 -14l367 -807l870 1804q9 19 35 19q41 0 41 -41z" />
    <glyph glyph-name="fourthroot" unicode="&#x221c;" horiz-adv-x="1706" 
d="M1057 903h-143v-105q0 -40 30 -49q10 -3 68 -3h41v-64q-74 5 -166 5h-78q-92 0 -166 -5v64h41q58 0 68 3q30 9 30 49v105h-381v55l442 628q14 20 38 20q33 0 33 -46v-594h143v-63zM1747 1565q0 -10 -2 -14l-952 -1975q-9 -18 -56 -18q-13 0 -18 12l-408 897
q-129 -98 -135 -98q-29 0 -29 29q0 9 9 16l243 184q8 6 15 6q14 0 20 -14l367 -807l870 1804q9 19 35 19q41 0 41 -41zM790 966v451l-317 -451h317z" />
    <glyph glyph-name="infinity" unicode="&#x221e;" horiz-adv-x="2048" 
d="M1931 442q0 -182 -105 -318q-113 -147 -290 -147q-134 0 -264 77q-119 70 -205 186l-61 82q-212 -345 -502 -345q-174 0 -286 149q-103 136 -103 316q0 181 105 316q114 147 290 147q132 0 263 -77q122 -72 206 -185l61 -82q216 344 502 344q175 0 287 -148
q102 -135 102 -315zM1878 442q0 149 -81 264q-91 128 -234 128q-260 0 -465 -349l134 -172q82 -102 149 -159q82 -70 188 -70q136 0 226 113q83 106 83 245zM948 397q-67 86 -133 173q-81 101 -150 159q-82 70 -188 70q-137 0 -226 -113q-83 -106 -83 -246q0 -147 82 -263
q92 -128 233 -128q260 0 465 348z" />
    <glyph glyph-name="integral" unicode="&#x222b;" horiz-adv-x="1019" 
d="M1019 1449q0 -75 -77 -75q-75 0 -75 75q0 69 67 78q-47 38 -120 38q-86 0 -126 -118q-30 -89 -45 -268q-9 -140 -18 -279q-25 -376 -100 -924q-23 -165 -90 -274q-88 -144 -231 -144q-78 0 -137 39q-67 44 -67 118q0 75 76 75q77 0 77 -75q0 -69 -70 -78q48 -39 121 -39
q98 0 144 118q40 102 61 408q31 446 72 769q16 128 39 293q24 178 84 283q78 137 210 137q77 0 137 -39q68 -45 68 -118z" />
    <glyph glyph-name="approxequal" unicode="&#x2248;" horiz-adv-x="1591" 
d="M1477 995q0 -152 -92 -267q-100 -124 -248 -124q-114 0 -238 88l-208 164q-123 88 -236 88q-162 0 -245 -147q-29 -52 -38 -142q-5 -51 -29 -51q-28 0 -28 63q0 152 92 268q99 123 248 123q115 0 240 -88q104 -82 207 -164q124 -88 235 -88q85 0 156 50t104 130
q15 36 22 109q5 51 29 51q29 0 29 -63zM1477 495q0 -152 -92 -267q-100 -124 -248 -124q-114 0 -238 88l-208 164q-123 88 -236 88q-162 0 -245 -147q-29 -52 -38 -142q-5 -51 -29 -51q-28 0 -28 63q0 152 92 268q99 123 248 123q115 0 240 -88q104 -82 207 -164
q124 -88 235 -88q85 0 156 50t104 130q15 36 22 109q5 51 29 51q29 0 29 -63z" />
    <glyph glyph-name="notequal" unicode="&#x2260;" horiz-adv-x="1591" 
d="M1477 382q0 -41 -37 -41h-768l-291 -505q-23 -40 -46 -40q-41 0 -41 38q0 15 16 43l268 464h-424q-39 0 -39 41t39 41h471l184 318h-655q-39 0 -39 41t39 41h702l292 506q23 39 45 39q41 0 41 -38q0 -16 -15 -42l-268 -465h489q37 0 37 -41t-37 -41h-537l-183 -318h720
q37 0 37 -41z" />
    <glyph glyph-name="lessequal" unicode="&#x2264;" horiz-adv-x="1591" 
d="M1421 31q0 -41 -41 -41q-8 0 -14 3l-1169 552q-27 13 -27 37t27 37l1169 552q6 3 14 3q41 0 41 -41q0 -26 -24 -37l-1090 -514l1090 -514q24 -11 24 -37zM1421 -259q0 -41 -37 -41h-1175q-39 0 -39 41t39 41h1175q37 0 37 -41z" />
    <glyph glyph-name="greaterequal" unicode="&#x2265;" horiz-adv-x="1591" 
d="M1421 582q0 -24 -27 -37l-1169 -552q-6 -3 -14 -3q-41 0 -41 41q0 26 24 37l1090 514l-1090 514q-24 11 -24 37q0 41 41 41q8 0 14 -3l1169 -552q27 -13 27 -37zM1421 -259q0 -41 -37 -41h-1175q-39 0 -39 41t39 41h1175q37 0 37 -41z" />
    <glyph glyph-name="lessdblequal" unicode="&#x2266;" horiz-adv-x="1591" 
d="M1421 331q0 -41 -41 -41q-8 0 -14 3l-1169 552q-27 13 -27 37t27 37l1169 552q6 3 14 3q41 0 41 -41q0 -26 -24 -37l-1090 -514l1090 -514q24 -11 24 -37zM1421 41q0 -41 -37 -41h-1175q-39 0 -39 41t39 41h1175q37 0 37 -41zM1421 -259q0 -41 -37 -41h-1175
q-39 0 -39 41t39 41h1175q37 0 37 -41z" />
    <glyph glyph-name="greaterdblequal" unicode="&#x2267;" horiz-adv-x="1591" 
d="M1421 882q0 -24 -27 -37l-1169 -552q-6 -3 -14 -3q-41 0 -41 41q0 26 24 37l1090 514l-1090 514q-24 11 -24 37q0 41 41 41q8 0 14 -3l1169 -552q27 -13 27 -37zM1421 41q0 -41 -37 -41h-1175q-39 0 -39 41t39 41h1175q37 0 37 -41zM1421 -259q0 -41 -37 -41h-1175
q-39 0 -39 41t39 41h1175q37 0 37 -41z" />
    <glyph glyph-name="leftwhitesquarebracket_m" unicode="&#x27e6;" horiz-adv-x="682" 
d="M571 -309q0 -41 -68 -41h-391v1864h391q68 0 68 -40q0 -41 -68 -41h-109v-1701h109q68 0 68 -41zM313 -268v1701h-120v-1701h120z" />
    <glyph glyph-name="rightwhitesquarebracket_m" unicode="&#x27e7;" horiz-adv-x="682" 
d="M570 -350h-391q-68 0 -68 41t68 41h109v1701h-109q-68 0 -68 41q0 40 68 40h391v-1864zM489 -268v1701h-120v-1701h120z" />
    <glyph glyph-name="leftanglebracket_m" unicode="&#x27e8;" horiz-adv-x="666" 
d="M558 -312q0 -38 -42 -38q-23 0 -43 47l-382 885l382 885q20 47 43 47q42 0 42 -38q0 -17 -8 -36l-371 -858l371 -858q8 -19 8 -36z" />
    <glyph glyph-name="rightanglebracket_m" unicode="&#x27e9;" horiz-adv-x="666" 
d="M575 582l-382 -885q-20 -47 -43 -47q-42 0 -42 38q0 17 8 36l371 858l-371 858q-8 19 -8 36q0 38 42 38q23 0 43 -47z" />
    <glyph glyph-name="leftdoubleanglebracket_m" unicode="&#x27ea;" horiz-adv-x="966" 
d="M858 -312q0 -38 -42 -38q-23 0 -43 47l-382 885l382 885q20 47 43 47q42 0 42 -38q0 -17 -8 -36l-371 -858l371 -858q8 -19 8 -36zM558 -312q0 -38 -42 -38q-23 0 -43 47l-382 885l382 885q20 47 43 47q42 0 42 -38q0 -17 -8 -36l-371 -858l371 -858q8 -19 8 -36z" />
    <glyph glyph-name="rightdoubleanglebracket_m" unicode="&#x27eb;" horiz-adv-x="966" 
d="M875 582l-382 -885q-20 -47 -43 -47q-42 0 -42 38q0 17 8 36l371 858l-371 858q-8 19 -8 36q0 38 42 38q23 0 43 -47zM575 582l-382 -885q-20 -47 -43 -47q-42 0 -42 38q0 17 8 36l371 858l-371 858q-8 19 -8 36q0 38 42 38q23 0 43 -47z" />
    <glyph glyph-name="m_L_W_TortoiseShellBracket" unicode="&#x27ec;" horiz-adv-x="873" 
d="M709 -329q0 -21 -17 -21q-77 0 -228 118q-193 150 -300 331v966q107 181 300 331q151 118 228 118q17 0 17 -21q0 -19 -46 -54q-142 -109 -231 -332v-1050q89 -223 231 -332q46 -35 46 -54zM393 -53q-24 49 -42 94v1082q21 54 41 94q-107 -112 -147 -175v-920
q38 -60 148 -175z" />
    <glyph glyph-name="m_R_W_TortoiseShellBracket" unicode="&#x27ed;" horiz-adv-x="873" 
d="M709 99q-107 -181 -300 -331q-151 -118 -228 -118q-17 0 -17 21q0 19 46 54q142 109 231 332v1050q-89 223 -231 332q-46 35 -46 54q0 21 17 21q77 0 228 -118q193 -150 300 -331v-966zM628 122v920q-38 60 -148 175q24 -49 42 -94v-1082q-21 -52 -50 -110q94 92 156 191
z" />
    <glyph glyph-name="u27EE" unicode="&#x27ee;" horiz-adv-x="582" 
d="M474 -332q0 -18 -19 -18q-10 0 -46 29q-156 128 -214 209q-62 87 -84 215q-14 79 -18 232q-2 80 -2 247t2 247q4 153 18 232q22 128 84 215q58 81 214 209q36 29 46 29q19 0 19 -18q0 -9 -24 -32q-90 -87 -131 -176q-70 -154 -70 -532v-347q0 -379 70 -533
q41 -89 131 -176q24 -23 24 -32z" />
    <glyph glyph-name="u27EF" unicode="&#x27ef;" horiz-adv-x="582" 
d="M491 582q0 -167 -2 -247q-4 -153 -18 -232q-22 -128 -84 -215q-58 -81 -214 -209q-36 -29 -46 -29q-19 0 -19 18q0 9 24 32q90 87 131 176q70 154 70 532v347q0 379 -70 533q-41 89 -131 176q-24 23 -24 32q0 18 19 18q10 0 46 -29q156 -128 214 -209q62 -87 84 -215
q14 -79 18 -232q2 -80 2 -247z" />
    <glyph glyph-name="leftwhitecurlybracket" unicode="&#x2983;" horiz-adv-x="983" 
d="M827 -328q0 -22 -41 -22q-391 0 -391 342v313q0 226 -262 254q-33 4 -33 23t33 23q262 28 262 254v313q0 342 391 342q41 0 41 -22q0 -20 -17.5 -23t-44.5 -6v-1762q27 -3 44.5 -6t17.5 -23zM683 -286v1736q-206 -58 -206 -318v-277q0 -112 -39 -174q-44 -69 -148 -99
q104 -30 148 -99q39 -62 39 -174v-277q0 -260 206 -318z" />
    <glyph glyph-name="rightwhitecurlybracket" unicode="&#x2984;" horiz-adv-x="983" 
d="M883 582q0 -19 -33 -23q-262 -28 -262 -254v-313q0 -342 -391 -342q-41 0 -41 22q0 20 17.5 23t44.5 6v1762q-27 3 -44.5 6t-17.5 23q0 22 41 22q391 0 391 -342v-313q0 -226 262 -254q33 -4 33 -23zM693 582q-104 30 -148 99q-39 62 -39 174v277q0 260 -206 318v-1736
q206 58 206 318v277q0 112 39 174q44 69 148 99z" />
    <glyph glyph-name="leftwhiteparenthesis" unicode="&#x2985;" horiz-adv-x="875" 
d="M767 -329q0 -21 -17 -21q-77 0 -228 118q-431 337 -431 814t431 814q151 118 228 118q17 0 17 -21q0 -18 -46 -54q-163 -127 -253 -390q-77 -227 -77 -467t77 -467q90 -263 253 -390q46 -36 46 -54zM460 -74q-151 290 -151 656q0 356 142 643q-278 -277 -278 -643
q0 -376 287 -656z" />
    <glyph glyph-name="rightwhiteparenthesis" unicode="&#x2986;" horiz-adv-x="875" 
d="M784 582q0 -477 -431 -814q-151 -118 -228 -118q-17 0 -17 21q0 18 46 54q163 127 253 390q77 227 77 467t-77 467q-90 263 -253 390q-46 36 -46 54q0 21 17 21q77 0 228 -118q431 -337 431 -814zM702 582q0 366 -278 643q142 -287 142 -643q0 -366 -151 -656
q287 280 287 656z" />
    <glyph glyph-name="notationleftimagebracket" unicode="&#x2987;" horiz-adv-x="682" 
d="M574 -332q0 -18 -19 -18q-11 0 -46 29q-226 186 -323 398q-95 208 -95 505t95 505q97 212 323 398q35 29 46 29q19 0 19 -18v-1828zM492 -204v1565q-172 -159 -246 -344q-73 -180 -73 -435q0 -506 319 -786z" />
    <glyph glyph-name="notationrightimagebracket" unicode="&#x2988;" horiz-adv-x="682" 
d="M574 582q0 -297 -95 -505q-97 -212 -323 -398q-35 -29 -46 -29q-19 0 -19 18v1828q0 18 19 18q11 0 46 -29q226 -186 323 -398q95 -208 95 -505zM492 582q0 255 -73 435q-74 185 -246 344v-1565q319 280 319 786z" />
    <glyph glyph-name="leftblackshellbracket" unicode="&#x2997;" horiz-adv-x="873" 
d="M709 -329q0 -21 -17 -21q-77 0 -228 118q-193 150 -300 331v966q107 181 300 331q151 118 228 118q17 0 17 -21q0 -19 -46 -54q-142 -109 -231 -332v-1050q89 -223 231 -332q46 -35 46 -54z" />
    <glyph glyph-name="rightblackshellbracket" unicode="&#x2998;" horiz-adv-x="873" 
d="M709 99q-107 -181 -300 -331q-151 -118 -228 -118q-17 0 -17 21q0 19 46 54q142 109 231 332v1050q-89 223 -231 332q-46 35 -46 54q0 21 17 21q77 0 228 -118q193 -150 300 -331v-966z" />
    <glyph glyph-name="reversesolidusoperator" unicode="&#x29f5;" horiz-adv-x="569" 
d="M569 -312q0 -38 -42 -38q-30 0 -43 47l-476 1743q-8 29 -8 36q0 38 42 38q30 0 43 -47l476 -1743q8 -29 8 -36z" />
    <glyph glyph-name="bigsolidus" unicode="&#x29f8;" horiz-adv-x="669" 
d="M669 1568q0 -9 -8 -36l-576 -1927q-14 -47 -43 -47q-42 0 -42 38q0 9 8 36l576 1927q14 47 43 47q42 0 42 -38z" />
    <glyph glyph-name="bigreversesolidus" unicode="&#x29f9;" horiz-adv-x="669" 
d="M669 -404q0 -38 -42 -38q-29 0 -43 47l-576 1927q-8 27 -8 36q0 38 42 38q29 0 43 -47l576 -1927q8 -27 8 -36z" />
    <glyph glyph-name="leftcurvedanglebracket" unicode="&#x29fc;" 
d="M944 -341q0 -41 -43 -41q-16 0 -32 19l-111 156q-235 326 -508 621q-46 45 -131 139q-11 14 -11 29t11 29q44 46 131 139q272 294 508 621q35 54 111 156q16 19 32 19q43 0 43 -41q0 -11 -8 -24q-260 -409 -731 -899q471 -490 731 -899q8 -13 8 -24z" />
    <glyph glyph-name="rightcurvedanglebracket" unicode="&#x29fd;" 
d="M916 582q0 -15 -11 -29q-44 -46 -131 -139q-273 -295 -508 -621q-35 -54 -111 -156q-16 -19 -32 -19q-43 0 -43 41q0 11 8 24q260 409 731 899q-471 490 -731 899q-8 13 -8 24q0 41 43 41q16 0 32 -19l111 -156q236 -327 508 -621q46 -45 131 -139q11 -14 11 -29z" />
    <glyph glyph-name="u2E3A" unicode="&#x2e3a;" horiz-adv-x="4096" 
d="M4001 582q0 -41 -37 -41h-3830q-39 0 -39 41t39 41h3830q37 0 37 -41z" />
    <glyph glyph-name="u2E3B" unicode="&#x2e3b;" horiz-adv-x="6144" 
d="M6049 582q0 -41 -37 -41h-5878q-39 0 -39 41t39 41h5878q37 0 37 -41z" />
    <glyph glyph-name="u2E40" unicode="&#x2e40;" horiz-adv-x="682" 
d="M661 598h-638v128h638v-128zM661 342h-638v128h638v-128z" />
    <glyph glyph-name="LeftAngleBracket" unicode="&#x3008;" horiz-adv-x="795" 
d="M680 -401q0 -41 -41 -41q-28 0 -37 25q-377 996 -377 999q0 5 377 999q9 25 37 25q41 0 41 -41q0 -9 -371 -983q371 -974 371 -983z" />
    <glyph glyph-name="RightAngleBracket" unicode="&#x3009;" horiz-adv-x="795" 
d="M570 582q0 -3 -377 -999q-9 -25 -37 -25q-41 0 -41 41q0 9 371 983q-371 974 -371 983q0 41 41 41q28 0 37 -25q377 -994 377 -999z" />
    <glyph glyph-name="LeftDoubleAngleBracket" unicode="&#x300a;" horiz-adv-x="1105" 
d="M990 -401q0 -41 -41 -41q-28 0 -37 25q-377 996 -377 999q0 5 377 999q9 25 37 25q41 0 41 -41q0 -9 -371 -983q371 -974 371 -983zM680 -401q0 -41 -41 -41q-28 0 -37 25q-377 996 -377 999q0 5 377 999q9 25 37 25q41 0 41 -41q0 -9 -371 -983q371 -974 371 -983z" />
    <glyph glyph-name="RightDoubleAngleBracket" unicode="&#x300b;" horiz-adv-x="1105" 
d="M880 582q0 -3 -377 -999q-9 -25 -37 -25q-41 0 -41 41q0 9 371 983q-371 974 -371 983q0 41 41 41q28 0 37 -25q377 -994 377 -999zM570 582q0 -3 -377 -999q-9 -25 -37 -25q-41 0 -41 41q0 9 371 983q-371 974 -371 983q0 41 41 41q28 0 37 -25q377 -994 377 -999z" />
    <glyph glyph-name="LeftTortoiseShellBracket" unicode="&#x3014;" horiz-adv-x="718" 
d="M554 -350l-390 287v1290l390 287v-72q-33 -20 -149 -154q-129 -149 -129 -196v-1020q0 -47 129 -196q116 -134 149 -154v-72z" />
    <glyph glyph-name="RightTortoiseShellBracket" unicode="&#x3015;" horiz-adv-x="718" 
d="M554 -63l-390 -287v72q33 20 149 154q129 149 129 196v1020q0 47 -129 196q-116 134 -149 154v72l390 -287v-1290z" />
    <glyph glyph-name="LeftWhiteLenticularBracket" unicode="&#x3016;" horiz-adv-x="951" 
d="M787 -329q0 -21 -52 -21h-571v1864h571q52 0 52 -21q0 -11 -11 -20q-44 -32 -127 -105q-239 -247 -239 -786t239 -786q16 -16 127 -105q11 -9 11 -20zM597 -268q-144 134 -214 396q-55 207 -55 454t55 454q70 261 214 396h-351v-1700h351z" />
    <glyph glyph-name="RightWhiteLenticularBracket" unicode="&#x3017;" horiz-adv-x="951" 
d="M787 -350h-571q-52 0 -52 21q0 11 11 20q44 32 127 105q239 247 239 786t-239 786q-16 16 -127 105q-11 9 -11 20q0 21 52 21h571v-1864zM705 -268v1700h-351q144 -134 214 -396q55 -207 55 -454t-55 -454q-70 -261 -214 -396h351z" />
    <glyph glyph-name="LeftWhiteTortoiseShellBracket" unicode="&#x3018;" horiz-adv-x="758" 
d="M594 -350l-430 287v1290l430 287v-72q-39 -27 -110 -136q-74 -113 -74 -154v-1140q0 -41 74 -154q71 -109 110 -136v-72zM363 -97q-35 70 -35 109v1140q0 39 35 109l-117 -78v-1202z" />
    <glyph glyph-name="RightWhiteTortoiseShellBracket" unicode="&#x3019;" horiz-adv-x="758" 
d="M594 -63l-430 -287v72q39 27 110 136q74 113 74 154v1140q0 41 -74 154q-71 109 -110 136v72l430 -287v-1290zM512 -19v1202l-117 78q35 -70 35 -109v-1140q0 -39 -35 -109z" />
    <glyph glyph-name="LeftWhiteSquareBracket" unicode="&#x301a;" horiz-adv-x="682" 
d="M571 -309q0 -41 -68 -41h-391v1864h391q68 0 68 -40q0 -41 -68 -41h-109v-1701h109q68 0 68 -41zM313 -268v1701h-120v-1701h120z" />
    <glyph glyph-name="RightWhiteSquareBracket" unicode="&#x301b;" horiz-adv-x="682" 
d="M570 -350h-391q-68 0 -68 41t68 41h109v1701h-109q-68 0 -68 41q0 40 68 40h391v-1864zM489 -268v1701h-120v-1701h120z" />
    <glyph glyph-name="VS1" unicode="&#xfe00;" horiz-adv-x="0" 
 />
    <glyph glyph-name="vf_comma" unicode="&#xfe10;" horiz-adv-x="512" 
d="M376 2q0 -152 -84 -287q-69 -110 -103 -110q-20 0 -20 22q0 8 14 23q148 157 148 352q0 30 -5 31l-4 -4q-36 -29 -77 -29q-52 0 -82 35q-27 30 -27 74q0 43 29 75.5t80 32.5q61 0 96 -58t35 -157z" />
    <glyph glyph-name="vf_ideographiccomma" unicode="&#xfe11;" horiz-adv-x="512" 
d="M490 -219q0 -46 -34 -80t-80 -34t-80 34t-34 80q0 15 8 45t8 45q0 85 -86 150q-81 60 -168 60q47 50 141 50q125 0 227 -113q98 -110 98 -237z" />
    <glyph glyph-name="vf_ideographicfullstop" unicode="&#xfe12;" horiz-adv-x="512" 
d="M365 109q0 -45 -32 -77t-77 -32t-77 32t-32 77q0 44 32 76t77 32t77 -32t32 -76z" />
    <glyph glyph-name="vf_colon" unicode="&#xfe13;" horiz-adv-x="547" 
d="M378 743q0 -42 -31 -73t-74 -31q-42 0 -73 31t-31 73t31 73t73 31q43 0 74 -31t31 -73zM378 104q0 -42 -31 -73t-74 -31q-42 0 -73 31t-31 73t31 73t73 31q43 0 74 -31t31 -73z" />
    <glyph glyph-name="vf_semicolon" unicode="&#xfe14;" horiz-adv-x="569" 
d="M387 774q0 -45 -31.5 -76.5t-76.5 -31.5t-77 32t-32 76q0 45 32 77t77 32q44 0 76 -32t32 -77zM393 6q0 -153 -77 -290q-62 -111 -93 -111q-20 0 -20 22q0 11 14 27q131 151 131 369q-18 -16 -53 -21q-2 -2 -16 -2q-52 0 -82 35q-27 30 -27 74q0 43 29 75.5t80 32.5
q114 0 114 -211z" />
    <glyph glyph-name="vf_exclamationmark" unicode="&#xfe15;" horiz-adv-x="682" 
d="M449 1362l-79 -934q-4 -45 -29 -45t-29 47l-79 932q-4 47 32 77q32 27 76 27t76 -27q36 -30 32 -77zM450 109q0 -45 -32 -77t-77 -32t-77 32t-32 77q0 44 32 76t77 32t77 -32t32 -76z" />
    <glyph glyph-name="vf_questionmark" unicode="&#xfe16;" horiz-adv-x="909" 
d="M822 1167q0 -127 -98 -200q-270 -200 -270 -457v-72q0 -55 -27 -55q-25 0 -25 49v92q0 267 181 461q69 74 69 195q0 95 -28 139q-49 80 -195 80q-187 0 -268 -139q114 0 114 -93q0 -94 -94 -94t-94 98q0 107 91 186q100 87 257 87q207 0 308 -94q79 -73 79 -183zM536 109
q0 -45 -32 -77t-77 -32t-77 32t-32 77q0 44 32 76t77 32t77 -32t32 -76z" />
    <glyph glyph-name="Pi_it" unicode="&#x1d6f1;" horiz-adv-x="1414" 
d="M1662 1323q0 -27 -15 -34q-10 -5 -82 -6q-80 -1 -100 -34q-10 -15 -19 -53l-268 -1071q-4 -16 -4 -33q0 -33 83.5 -34.5t83.5 -20.5q0 -37 -38 -37q-16 0 -48 2t-48 2h-273q-16 0 -46.5 -2t-45.5 -2q-28 0 -28 19q0 38 46 38q131 0 154 36q7 11 17 53l286 1140h-596
l-290 -1161q-4 -16 -4 -33q0 -33 83.5 -34.5t83.5 -20.5q0 -37 -37 -37q-16 0 -48.5 2t-48.5 2h-273q-15 0 -46 -2t-46 -2q-28 0 -28 19q0 39 46 40l84 2q53 5 69 32q8 12 18 53l268 1069q6 24 6 35q0 34 -87 34h-15q-67 0 -67 21q0 38 46 38h1187q40 0 40 -20z" />
    <glyph glyph-name="Rho_it" unicode="&#x1d6f2;" horiz-adv-x="1252" 
d="M1430 1050q0 -181 -186 -310q-167 -115 -357 -115h-330l-126 -500q-4 -16 -4 -35q0 -32 83.5 -33t83.5 -20q0 -37 -37 -37q-19 0 -55.5 2t-55.5 2h-239q-19 0 -55.5 -2t-54.5 -2q-30 0 -30 22q0 32 48 37q36 1 72 1q58 2 77 30q11 15 21 56l264 1057q8 31 8 45
q0 29 -46 35q-5 1 -69 1q-52 0 -52 22q0 37 46 37h616q151 0 256 -69q122 -81 122 -224zM1264 1092q0 194 -269 194h-194q-55 0 -72.5 -12t-30.5 -65l-133 -538h277q296 0 390 254q32 85 32 167z" />
    <glyph glyph-name="Sigma_it" unicode="&#x1d6f4;" horiz-adv-x="1324" 
d="M1522 1319l-45 -368q-5 -47 -26 -47q-19 0 -19 24q0 19 4 57t4 57q0 157 -107 209q-70 35 -245 35h-508q157 -375 256 -615q-2 -10 -19 -25l-617 -571h549q244 0 348 61q70 42 125 130q24 38 83 162q14 28 27 28q20 0 20 -19q0 -3 -68.5 -189.5t-79.5 -213.5
q-5 -13 -20 -31q-6 -3 -39 -3h-1019q-52 0 -52 19q0 9 19 26l600 553l-298 703q-2 42 56 42h1021q53 0 50 -24z" />
    <glyph glyph-name="zero_ss" unicode="&#x1d7e2;" horiz-adv-x="1137" 
d="M1023 672q0 -307 -78 -471q-109 -229 -379 -229q-271 0 -380 228q-77 163 -77 470q0 306 78 470q109 230 379 230q269 0 378 -229q79 -164 79 -469zM854 672q0 294 -55 417q-66 146 -233 146q-87 0 -145 -37q-110 -71 -133 -289q-11 -109 -11 -239q0 -287 53 -412
q63 -151 236 -151q171 0 234 148q54 128 54 417z" />
    <glyph glyph-name="one_ss" unicode="&#x1d7e3;" horiz-adv-x="1137" 
d="M948 0h-712v123h279v926h-279v109q149 1 216 38q88 48 96 151h126v-1224h274v-123z" />
    <glyph glyph-name="two_ss" unicode="&#x1d7e4;" horiz-adv-x="1137" 
d="M1024 0h-894v180l187 161q91 79 178 164q152 149 202 218q102 138 102 273q0 115 -79 177q-71 55 -191 55q-185 0 -365 -118v179q169 82 370 82q189 0 304 -87q130 -97 130 -279q0 -147 -76 -268q-61 -97 -196 -231q-100 -98 -199 -185q-103 -90 -208 -180h735v-141z" />
    <glyph glyph-name="three_ss" unicode="&#x1d7e5;" horiz-adv-x="1137" 
d="M1005 395q0 -138 -75 -243.5t-206 -149.5q-90 -30 -198 -30q-206 0 -390 83v178h3q180 -118 383 -118q149 0 230 77q84 81 84 216q0 141 -89 203q-74 50 -227 50h-74v136h56q130 0 211 51q96 61 96 184q0 102 -82 153q-68 43 -187 43q-185 0 -366 -118v178q171 83 371 83
q97 0 171 -18q164 -40 229 -160q32 -61 32 -142q0 -110 -77 -192.5t-188 -104.5v-26q49 -8 104 -31q112 -46 162 -152q27 -58 27 -150z" />
    <glyph glyph-name="four_ss" unicode="&#x1d7e6;" horiz-adv-x="1137" 
d="M1055 382h-199v-382h-158v382h-644v200l647 761h155v-830h199v-131zM698 513v641l-545 -641h545z" />
    <glyph glyph-name="five_ss" unicode="&#x1d7e7;" horiz-adv-x="1137" 
d="M1014 424q0 -197 -126 -322q-132 -130 -358 -130q-208 0 -376 77v180h3q179 -114 370 -114q150 0 236 84q82 81 82 226q0 135 -91.5 201t-270.5 66q-115 0 -272 -32v683h794v-144h-635v-377q86 8 158 8q217 0 337 -84q149 -103 149 -322z" />
    <glyph glyph-name="six_ss" unicode="&#x1d7e8;" horiz-adv-x="1137" 
d="M1044 433q0 -199 -129.5 -330t-328.5 -131q-195 0 -318 121q-159 156 -159 496q0 357 159 563q166 216 491 216q93 0 154 -19v-161q-73 39 -181 39q-198 0 -315.5 -125t-137.5 -351q88 54 160.5 77.5t167.5 23.5q169 0 281 -79q156 -110 156 -340zM876 426
q0 165 -109 243q-69 49 -202 49q-144 0 -285 -78q-2 -24 -3 -43t-1 -47q0 -258 112 -365q84 -80 200 -80q143 0 218 91q70 84 70 230z" />
    <glyph glyph-name="seven_ss" unicode="&#x1d7e9;" horiz-adv-x="1137" 
d="M1028 1149l-605 -1149h-176l647 1199h-770v144h904v-194z" />
    <glyph glyph-name="eight_ss" unicode="&#x1d7ea;" horiz-adv-x="1137" 
d="M1034 371q0 -185 -145 -298q-134 -104 -324 -104q-198 0 -327 99q-143 108 -143 299q0 233 248 346v15q-111 59 -161.5 126.5t-50.5 169.5q0 165 139 263q123 87 295 87q174 0 294 -80q139 -92 139 -258q0 -90 -55.5 -177t-167.5 -138v-16q129 -56 194 -134.5t65 -199.5z
M836 1034q0 107 -85 167q-76 54 -187 54q-109 0 -182 -50q-85 -57 -85 -160q0 -130 152 -206q110 -55 222 -88q165 111 165 283zM863 354q0 95 -48 151q-39 46 -135 92q-16 7 -231 87q-187 -103 -187 -303q0 -129 87 -210t217 -81q131 0 211 66q86 70 86 198z" />
    <glyph glyph-name="nine_ss" unicode="&#x1d7eb;" horiz-adv-x="1137" 
d="M1023 753q0 -177 -40 -321q-81 -292 -323 -402q-122 -56 -287 -56q-95 0 -155 19v161q75 -39 182 -39q202 0 317.5 123t134.5 353q-96 -58 -169 -79.5t-159 -21.5q-168 0 -281 79q-156 109 -156 340q0 199 129.5 330t328.5 131q198 0 320 -120q158 -155 158 -497z
M855 792q0 261 -110 366q-83 79 -202 79q-141 0 -217 -92q-71 -85 -71 -229q0 -166 110 -243q69 -49 201 -49q72 0 145 19.5t141 58.5q1 23 2 42t1 48z" />
    <glyph glyph-name="zero_mo" unicode="&#x1d7f6;" horiz-adv-x="1140" 
d="M1036 670q0 -153 -44 -293q-51 -162 -151 -271q-120 -130 -271 -130q-154 0 -277 135q-103 115 -151 280q-38 131 -38 282q0 156 43 293q51 162 152 271q120 130 271 130q154 0 276 -136q103 -114 151 -279q39 -134 39 -282zM884 695q0 124 -30 233q-32 118 -98 201
q-82 104 -186 104q-105 0 -187 -105q-66 -83 -98 -201q-30 -109 -30 -232q0 -119 25 -229q30 -132 94 -229q85 -127 196 -127t195 127q64 97 94 229q25 110 25 229z" />
    <glyph glyph-name="one_mo" unicode="&#x1d7f7;" horiz-adv-x="1140" 
d="M940 66q0 -66 -79 -66h-568q-80 0 -80 66q0 68 88 68h200v927q-111 -96 -228 -96q-73 0 -73 66q0 39 23 53q14 9 58 15q143 20 239 215q26 53 67 53q66 0 66 -90v-1143h200q87 0 87 -68z" />
    <glyph glyph-name="two_mo" unicode="&#x1d7f8;" horiz-adv-x="1140" 
d="M1033 148q0 -10 -1 -29t-1 -29q0 -60 -25 -77q-19 -13 -64 -13h-744q-91 0 -91 68q0 30 34 59l486 409q252 212 252 402q0 138 -109 220q-98 75 -241 75q-86 0 -156 -44q-74 -47 -100 -126q30 -26 30 -70q0 -40 -28 -69t-68 -29q-44 0 -72 30t-28 75q0 162 138 269
q128 98 295 98q201 0 341 -112q150 -120 150 -317q0 -219 -240 -439q-146 -121 -435 -365h523q-1 54 10 74q15 30 67 30q77 0 77 -90z" />
    <glyph glyph-name="three_mo" unicode="&#x1d7f9;" horiz-adv-x="1140" 
d="M1050 383q0 -180 -151 -298q-140 -109 -325 -109q-179 0 -315 72q-169 88 -169 251q0 45 27.5 74t72.5 29q40 0 68.5 -28t28.5 -68q0 -44 -27 -68q72 -128 314 -128q125 0 220 73q103 79 103 200q0 124 -105 203q-96 71 -225 71h-100q-88 0 -88 69q0 40 26 54q15 9 61 13
q9 1 71 5q136 9 205 66q92 76 92 191q0 87 -91 137q-75 41 -169 41q-171 0 -243 -68q19 -24 19 -60q0 -40 -28 -69.5t-68 -29.5q-43 0 -71 30t-28 74q0 138 148 206q112 51 269 51q155 0 275 -76q138 -87 138 -234q0 -205 -184 -323q110 -50 177 -140q72 -96 72 -211z" />
    <glyph glyph-name="four_mo" unicode="&#x1d7fa;" horiz-adv-x="1140" 
d="M1083 437q0 -65 -89 -65h-171v-238h136q88 0 88 -68q0 -66 -82 -66h-408q-82 0 -82 66q0 68 88 68h137v238h-554q-58 0 -75 22q-14 18 -14 78q0 33 20 64l501 787q20 31 38 39q15 7 55 7q11 0 33 1h33q49 0 67.5 -20t18.5 -71v-774h171q89 0 89 -68zM700 505v768
l-488 -768h488z" />
    <glyph glyph-name="five_mo" unicode="&#x1d7fb;" horiz-adv-x="1140" 
d="M1032 418q0 -192 -153 -320q-145 -122 -340 -122q-161 0 -288 86q-143 96 -143 250q0 45 27.5 75.5t72.5 30.5q41 0 68.5 -29t27.5 -70q0 -45 -28 -70q71 -139 263 -139q136 0 236 85q105 90 105 223q0 123 -77 211q-81 92 -202 92q-169 0 -277 -110q-32 -33 -66 -33
q-70 0 -70 90v585q0 53 17.5 71.5t70.5 18.5h591q87 0 87 -68q0 -66 -87 -66h-528v-417q118 63 264 63q180 0 304.5 -128t124.5 -309z" />
    <glyph glyph-name="six_mo" unicode="&#x1d7fc;" horiz-adv-x="1140" 
d="M1030 424q0 -188 -133.5 -318t-322.5 -130q-249 0 -370 229q-94 178 -94 452q0 203 83 371q90 184 257 274q120 65 250 65q119 0 199 -52q93 -61 93 -174q0 -45 -27 -74.5t-72 -29.5q-41 0 -69 28.5t-28 69.5t22 63q-42 35 -120 35q-179 0 -303 -160q-109 -141 -128 -330
q139 127 328 127q184 0 309.5 -130.5t125.5 -315.5zM878 424q0 128 -82 218q-85 92 -212 92q-114 0 -203 -64q-97 -72 -97 -182q0 -11 4 -44q3 -27 1 -44q71 -290 285 -290q129 0 216.5 92t87.5 222z" />
    <glyph glyph-name="seven_mo" unicode="&#x1d7fd;" horiz-adv-x="1140" 
d="M1050 1275q0 -28 -50 -75q-355 -332 -453 -853q-8 -94 -28 -283q-12 -88 -74 -88q-77 0 -77 103q0 307 122 607q120 296 333 523h-580q1 -54 -10 -74q-15 -30 -67 -30q-76 0 -76 91v92q0 90 76 90q55 0 70 -35h725q89 0 89 -68z" />
    <glyph glyph-name="eight_mo" unicode="&#x1d7fe;" horiz-adv-x="1140" 
d="M1050 383q0 -179 -154 -298q-142 -109 -326 -109q-183 0 -326 110q-154 119 -154 297q0 122 95 219q86 87 211 122q-113 37 -186 104q-89 82 -89 187q0 158 150 261q133 91 299 91t299 -91q149 -103 149 -261q0 -200 -274 -291q125 -36 210 -123q96 -97 96 -218z
M867 1013q0 102 -101 165q-88 55 -196 55t-195 -55q-101 -63 -101 -165t101 -166q87 -55 195 -55q109 0 196 55q101 63 101 166zM897 385q0 122 -105 200q-96 72 -222 72q-125 0 -221 -72q-106 -79 -106 -200q0 -122 105 -202q96 -73 222 -73t222 73q105 80 105 202z" />
    <glyph glyph-name="nine_mo" unicode="&#x1d7ff;" horiz-adv-x="1140" 
d="M1030 686q0 -199 -76 -366q-85 -186 -243 -278q-114 -66 -242 -66q-129 0 -214 48q-106 59 -106 178q0 104 98 104q41 0 69 -28.5t28 -69.5q0 -38 -20 -61q55 -37 145 -37q173 0 289 164q100 141 115 326q-139 -127 -328 -127q-184 0 -310 132q-125 129 -125 314
q0 191 138 321q136 127 328 127q245 0 363 -231q91 -179 91 -450zM858 855q0 11 -4.5 33t-4.5 33q0 3 1 10t1 10q0 35 -30 103q-27 62 -53 95q-75 94 -192 94q-131 0 -222 -91.5t-91 -222.5q0 -128 82 -218q84 -93 211 -93q113 0 203 66q99 72 99 181z" />
    <glyph glyph-name="u1F5D9" unicode="&#x1f5d9;" horiz-adv-x="2048" 
d="M1702 -96h-192l-480 474l-474 -474h-198v192l474 480l-474 474v198h198l474 -474l480 474h192v-198l-474 -474l474 -474v-198z" />
    <glyph glyph-name="zero_os" unicode="&#xfffb0;" 
d="M938 470q0 -514 -426 -514t-426 514t426 514t426 -514zM777 470q0 472 -265 472q-266 0 -266 -472t266 -472q265 0 265 472z" />
    <glyph glyph-name="one_os" unicode="&#xfffb1;" 
d="M854 0q-314 6 -328 6q-13 0 -325 -6v61q10 0 36.5 -1t42.5 -1q175 0 175 104v706q-114 -36 -265 -36v61q206 0 297 50q73 40 85 40q28 0 28 -44v-779q0 -100 148 -100h106v-61z" />
    <glyph glyph-name="two_os" unicode="&#xfffb2;" 
d="M917 276l-54 -276h-773q-2 26 -2 27q0 26 25 44l342 242q132 93 191 158q96 107 96 220q0 112 -91 176q-81 56 -198 56q-200 0 -265 -131q75 -8 75 -78q0 -73 -73 -73q-77 0 -77 82q0 38 14 73q75 188 372 188q172 0 282 -64q136 -79 136 -239q0 -204 -301 -361
q-113 -57 -334 -180h472q64 0 89 38q14 23 28 98h46z" />
    <glyph glyph-name="three_os" unicode="&#xfffb3;" 
d="M936 -41q0 -172 -132 -289q-127 -112 -301 -112q-159 0 -281 88q-136 97 -136 250q0 109 104 109q102 0 102 -102q0 -106 -93 -106q-16 0 -34 3q39 -87 139 -139q91 -47 193 -47q129 0 193 115q52 93 52 232q0 158 -63 249q-68 98 -194 98q-129 0 -80 -2q-65 3 -65 23
q0 18 44 23q54 2 155 23q83 33 128 139q37 88 37 191q0 236 -217 236q-80 0 -156 -37q-81 -40 -118 -105q7 2 23 2q96 0 96 -96q0 -94 -94 -94q-96 0 -96 100q0 129 122 209q107 71 242 71q141 0 249 -71q124 -81 124 -215q0 -283 -298 -368q150 -27 249 -125
q106 -106 106 -253z" />
    <glyph glyph-name="four_os" unicode="&#xfffb4;" 
d="M965 0h-211v-246q0 -61 23 -78q29 -21 176 -21v-60q-60 4 -124 4h-300q-62 0 -122 -4v60q151 0 178 21q21 16 21 78v246h-550v61l629 925q17 25 40 25q29 0 29 -50v-900h211v-61zM616 61v737l-507 -737h507z" />
    <glyph glyph-name="five_os" unicode="&#xfffb5;" 
d="M919 22q0 -190 -126 -325q-129 -139 -317 -139q-155 0 -264.5 112t-109.5 268q0 100 92 100t92 -92q0 -91 -92 -91q-17 0 -33 6q26 -106 114 -176.5t197 -70.5q116 0 189 85q64 74 83 195q6 39 6 140q0 251 -94 345q-56 56 -125 56q-92 0 -162 -42q-45 -27 -89 -79
q-36 -42 -44 -42q-25 0 -25 50v621q0 46 17 46q55 -19 121 -42q78 -23 175 -23q140 0 272 56q21 10 24 10q2 0 3 -1q17 1 17 -19q0 -12 -27 -44q-59 -69 -155.5 -114t-185.5 -45q-106 0 -205 32v-433q101 111 266 111q174 0 285 -144q101 -132 101 -311z" />
    <glyph glyph-name="six_os" unicode="&#xfffb6;" 
d="M936 426q0 -189 -115 -326q-121 -144 -307 -144q-76 0 -142 29q-286 126 -286 675q0 165 48 307q61 179 180 292q137 130 311 130q109 0 180 -52q81 -58 81 -163q0 -92 -88 -92q-86 0 -86 86q0 85 105 85q-54 86 -190 86q-129 0 -228 -109q-142 -156 -142 -559
q83 219 276 219q180 0 296 -145q107 -134 107 -319zM765 351v146q0 141 -49 233q-63 118 -192 118q-133 0 -204 -125q-59 -104 -59 -247q0 -217 48 -321q17 -38 57 -78q63 -64 148 -64q130 0 196 110q55 91 55 228z" />
    <glyph glyph-name="seven_os" unicode="&#xfffb7;" 
d="M992 899l-303 -434q-148 -212 -148 -694v-117q0 -96 -88 -96q-85 0 -85 107q0 170 56 366t146 344q104 172 286 424h-484q-142 0 -161 -13q-27 -18 -52 -190h-46l65 418h46q8 -35 41 -48q50 -19 224 -19h503v-48z" />
    <glyph glyph-name="eight_os" unicode="&#xfffb8;" 
d="M936 347q0 -170 -130 -283q-124 -108 -296 -108q-168 0 -290 94q-134 102 -134 265q0 245 307 387q-45 30 -90 61q-56 39 -82 70q-79 93 -79 214q0 149 112 247q107 95 258 95q144 0 250 -80q117 -88 117 -227q0 -183 -257 -328q166 -106 218 -161q96 -102 96 -246z
M794 1080q0 113 -87 188q-83 71 -197 71q-107 0 -189 -56q-93 -63 -93 -165q0 -82 64 -138q11 -11 34 -30l255 -167q213 120 213 297zM840 280q0 129 -128 213l-275 180q-111 -51 -180 -143q-75 -100 -75 -215q0 -132 100 -219q96 -83 230 -83q125 0 221 70q107 77 107 197z
" />
    <glyph glyph-name="nine_os" unicode="&#xfffb9;" 
d="M936 289q0 -325 -159 -535q-148 -196 -355 -196q-286 0 -286 217q0 90 88 90q85 0 85 -86q0 -67 -69 -85h-33q56 -80 213 -80q127 0 219 113q81 100 109 263q17 103 17 289q-86 -220 -276 -220q-178 0 -295 146q-108 135 -108 318q0 193 118 328q124 140 314 140
q74 0 142 -31q276 -126 276 -671zM761 460q0 150 -12 223q-23 131 -93 199q-61 59 -138 59q-129 0 -200 -106q-61 -92 -61 -228v-157q0 -140 49 -232q62 -117 191 -117q126 0 200 121q64 104 64 238z" />
    <glyph glyph-name="_127" 
 />
  </font>
</defs>
</svg>
